<svg width="740" height="420" viewBox="0 0 740 420" fill="none" xmlns="http://www.w3.org/2000/svg">
<g clip-path="url(#clip0_2135_304)">
<rect width="740" height="420" fill="url(#paint0_linear_2135_304)"/>
<g opacity="0.8">
<path opacity="0.5" d="M248.238 223.854L246.62 224.414L246.931 225.313L248.549 224.753L248.238 223.854Z" fill="#003682"/>
<g opacity="0.75">
<mask id="path-2-inside-1_2135_304" fill="white">
<path d="M243.703 226.079L240.483 227.194L240.172 226.294L243.392 225.18L243.703 226.079ZM237.263 228.308L234.033 229.425L233.722 228.526L236.988 227.396L237.263 228.308ZM230.813 230.539L227.584 231.656L227.273 230.757L230.502 229.64L230.813 230.539ZM224.363 232.77L221.143 233.885L220.832 232.985L224.052 231.871L224.363 232.77ZM217.914 235.002L214.693 236.116L214.382 235.217L217.603 234.103L217.914 235.002ZM211.464 237.233L208.271 238.338L207.96 237.439L211.18 236.325L211.464 237.233ZM205.023 239.461L201.794 240.579L201.483 239.68L204.712 238.562L205.023 239.461ZM198.574 241.693L195.354 242.807L195.042 241.908L198.263 240.794L198.574 241.693ZM192.124 243.924L188.904 245.038L188.593 244.139L191.813 243.025L192.124 243.924ZM185.675 246.156L182.454 247.27L182.143 246.371L185.363 245.257L185.675 246.156ZM179.234 248.384L176.005 249.501L175.694 248.602L178.932 247.482L179.234 248.384ZM172.784 250.615L169.555 251.733L169.244 250.833L172.473 249.716L172.784 250.615ZM166.335 252.847L163.114 253.961L162.803 253.062L166.024 251.948L166.335 252.847ZM159.885 255.078L156.665 256.192L156.354 255.293L159.574 254.179L159.885 255.078ZM153.435 257.309L150.215 258.424L149.904 257.524L153.124 256.41L153.435 257.309ZM146.995 259.538L143.765 260.655L143.454 259.756L146.684 258.639L146.995 259.538ZM140.545 261.769L137.325 262.883L137.014 261.984L140.234 260.87L140.545 261.769ZM134.096 264.001L130.875 265.115L130.564 264.215L133.784 263.101L134.096 264.001ZM127.646 266.232L124.426 267.346L124.115 266.447L127.335 265.333L127.646 266.232ZM121.205 268.46L117.976 269.577L117.665 268.678L120.876 267.567L121.205 268.46ZM114.756 270.692L111.526 271.809L111.215 270.91L114.445 269.792L114.756 270.692Z"/>
</mask>
<path d="M243.703 226.079L244.357 227.97L246.247 227.316L245.593 225.426L243.703 226.079ZM240.483 227.194L238.593 227.847L239.247 229.738L241.137 229.084L240.483 227.194ZM240.172 226.294L239.518 224.404L237.628 225.058L238.282 226.948L240.172 226.294ZM243.392 225.18L245.282 224.526L244.628 222.636L242.738 223.29L243.392 225.18ZM237.263 228.308L237.917 230.198L239.732 229.57L239.178 227.73L237.263 228.308ZM234.033 229.425L232.143 230.079L232.797 231.969L234.687 231.315L234.033 229.425ZM233.722 228.526L233.068 226.636L231.178 227.29L231.832 229.18L233.722 228.526ZM236.988 227.396L238.903 226.819L238.302 224.825L236.334 225.506L236.988 227.396ZM230.813 230.539L231.467 232.429L233.357 231.775L232.703 229.885L230.813 230.539ZM227.584 231.656L225.694 232.31L226.347 234.2L228.238 233.546L227.584 231.656ZM227.273 230.757L226.619 228.867L224.729 229.521L225.382 231.411L227.273 230.757ZM230.502 229.64L232.392 228.986L231.738 227.096L229.848 227.75L230.502 229.64ZM224.363 232.77L225.017 234.661L226.907 234.007L226.253 232.117L224.363 232.77ZM221.143 233.885L219.253 234.538L219.907 236.429L221.797 235.775L221.143 233.885ZM220.832 232.985L220.178 231.095L218.288 231.749L218.942 233.639L220.832 232.985ZM224.052 231.871L225.942 231.217L225.288 229.327L223.398 229.981L224.052 231.871ZM217.914 235.002L218.568 236.892L220.458 236.238L219.804 234.348L217.914 235.002ZM214.693 236.116L212.803 236.77L213.457 238.66L215.347 238.006L214.693 236.116ZM214.382 235.217L213.728 233.327L211.838 233.981L212.492 235.871L214.382 235.217ZM217.603 234.103L219.493 233.449L218.839 231.559L216.949 232.213L217.603 234.103ZM211.464 237.233L212.118 239.123L213.952 238.489L213.373 236.637L211.464 237.233ZM208.271 238.338L206.381 238.992L207.035 240.882L208.925 240.228L208.271 238.338ZM207.96 237.439L207.306 235.549L205.416 236.203L206.07 238.093L207.96 237.439ZM211.18 236.325L213.089 235.728L212.474 233.761L210.526 234.435L211.18 236.325ZM205.023 239.461L205.677 241.352L207.567 240.698L206.914 238.808L205.023 239.461ZM201.794 240.579L199.904 241.233L200.558 243.123L202.448 242.469L201.794 240.579ZM201.483 239.68L200.829 237.79L198.939 238.443L199.593 240.334L201.483 239.68ZM204.712 238.562L206.602 237.908L205.949 236.018L204.058 236.672L204.712 238.562ZM198.574 241.693L199.228 243.583L201.118 242.929L200.464 241.039L198.574 241.693ZM195.354 242.807L193.463 243.461L194.117 245.351L196.007 244.697L195.354 242.807ZM195.042 241.908L194.389 240.018L192.498 240.672L193.152 242.562L195.042 241.908ZM198.263 240.794L200.153 240.14L199.499 238.25L197.609 238.904L198.263 240.794ZM192.124 243.924L192.778 245.814L194.668 245.16L194.014 243.27L192.124 243.924ZM188.904 245.038L187.014 245.692L187.668 247.582L189.558 246.928L188.904 245.038ZM188.593 244.139L187.939 242.249L186.049 242.903L186.703 244.793L188.593 244.139ZM191.813 243.025L193.703 242.371L193.049 240.481L191.159 241.135L191.813 243.025ZM185.675 246.156L186.328 248.046L188.219 247.392L187.565 245.502L185.675 246.156ZM182.454 247.27L180.564 247.924L181.218 249.814L183.108 249.16L182.454 247.27ZM182.143 246.371L181.489 244.481L179.599 245.134L180.253 247.025L182.143 246.371ZM185.363 245.257L187.254 244.603L186.6 242.713L184.71 243.366L185.363 245.257ZM179.234 248.384L179.888 250.274L181.759 249.627L181.131 247.749L179.234 248.384ZM176.005 249.501L174.115 250.155L174.768 252.045L176.659 251.391L176.005 249.501ZM175.694 248.602L175.04 246.712L173.15 247.366L173.803 249.256L175.694 248.602ZM178.932 247.482L180.829 246.847L180.187 244.931L178.278 245.592L178.932 247.482ZM172.784 250.615L173.438 252.505L175.328 251.851L174.674 249.961L172.784 250.615ZM169.555 251.733L167.665 252.386L168.319 254.277L170.209 253.623L169.555 251.733ZM169.244 250.833L168.59 248.943L166.7 249.597L167.354 251.487L169.244 250.833ZM172.473 249.716L174.363 249.062L173.709 247.172L171.819 247.826L172.473 249.716ZM166.335 252.847L166.989 254.737L168.879 254.083L168.225 252.193L166.335 252.847ZM163.114 253.961L161.224 254.615L161.878 256.505L163.768 255.851L163.114 253.961ZM162.803 253.062L162.149 251.172L160.259 251.826L160.913 253.716L162.803 253.062ZM166.024 251.948L167.914 251.294L167.26 249.404L165.37 250.057L166.024 251.948ZM159.885 255.078L160.539 256.968L162.429 256.314L161.775 254.424L159.885 255.078ZM156.665 256.192L154.775 256.846L155.429 258.736L157.319 258.082L156.665 256.192ZM156.354 255.293L155.7 253.403L153.81 254.057L154.464 255.947L156.354 255.293ZM159.574 254.179L161.464 253.525L160.81 251.635L158.92 252.289L159.574 254.179ZM153.435 257.309L154.089 259.2L155.979 258.546L155.325 256.656L153.435 257.309ZM150.215 258.424L148.325 259.078L148.979 260.968L150.869 260.314L150.215 258.424ZM149.904 257.524L149.25 255.634L147.36 256.288L148.014 258.178L149.904 257.524ZM153.124 256.41L155.014 255.756L154.36 253.866L152.47 254.52L153.124 256.41ZM146.995 259.538L147.649 261.428L149.539 260.774L148.885 258.884L146.995 259.538ZM143.765 260.655L141.875 261.309L142.529 263.199L144.419 262.545L143.765 260.655ZM143.454 259.756L142.8 257.866L140.91 258.52L141.564 260.41L143.454 259.756ZM146.684 258.639L148.574 257.985L147.92 256.095L146.03 256.749L146.684 258.639ZM140.545 261.769L141.199 263.659L143.089 263.005L142.435 261.115L140.545 261.769ZM137.325 262.883L135.435 263.537L136.089 265.427L137.979 264.773L137.325 262.883ZM137.014 261.984L136.36 260.094L134.47 260.748L135.124 262.638L137.014 261.984ZM140.234 260.87L142.124 260.216L141.47 258.326L139.58 258.98L140.234 260.87ZM134.096 264.001L134.749 265.891L136.64 265.237L135.986 263.347L134.096 264.001ZM130.875 265.115L128.985 265.769L129.639 267.659L131.529 267.005L130.875 265.115ZM130.564 264.215L129.91 262.325L128.02 262.979L128.674 264.869L130.564 264.215ZM133.784 263.101L135.675 262.447L135.021 260.557L133.131 261.211L133.784 263.101ZM127.646 266.232L128.3 268.122L130.19 267.468L129.536 265.578L127.646 266.232ZM124.426 267.346L122.536 268L123.189 269.89L125.079 269.236L124.426 267.346ZM124.115 266.447L123.461 264.557L121.571 265.211L122.224 267.101L124.115 266.447ZM127.335 265.333L129.225 264.679L128.571 262.789L126.681 263.443L127.335 265.333ZM121.205 268.46L121.859 270.35L123.788 269.683L123.082 267.768L121.205 268.46ZM117.976 269.577L116.086 270.231L116.74 272.121L118.63 271.468L117.976 269.577ZM117.665 268.678L117.011 266.788L115.121 267.442L115.775 269.332L117.665 268.678ZM120.876 267.567L122.753 266.875L122.074 265.036L120.222 265.677L120.876 267.567ZM114.756 270.692L115.41 272.582L117.3 271.928L116.646 270.038L114.756 270.692ZM111.526 271.809L109.636 272.463L110.29 274.353L112.18 273.699L111.526 271.809ZM111.215 270.91L110.561 269.02L108.671 269.674L109.325 271.564L111.215 270.91ZM114.445 269.792L116.335 269.138L115.681 267.248L113.791 267.902L114.445 269.792ZM243.049 224.189L239.829 225.303L241.137 229.084L244.357 227.97L243.049 224.189ZM242.373 226.54L242.062 225.64L238.282 226.948L238.593 227.847L242.373 226.54ZM240.826 228.184L244.046 227.07L242.738 223.29L239.518 224.404L240.826 228.184ZM241.502 225.834L241.813 226.733L245.593 225.426L245.282 224.526L241.502 225.834ZM236.609 226.418L233.379 227.535L234.687 231.315L237.917 230.198L236.609 226.418ZM235.923 228.771L235.612 227.872L231.832 229.18L232.143 230.079L235.923 228.771ZM234.376 230.416L237.642 229.286L236.334 225.506L233.068 226.636L234.376 230.416ZM235.073 227.973L235.348 228.885L239.178 227.73L238.903 226.819L235.073 227.973ZM230.159 228.649L226.93 229.766L228.238 233.546L231.467 232.429L230.159 228.649ZM229.474 231.002L229.163 230.103L225.382 231.411L225.694 232.31L229.474 231.002ZM227.926 232.647L231.156 231.53L229.848 227.75L226.619 228.867L227.926 232.647ZM228.612 230.294L228.923 231.193L232.703 229.885L232.392 228.986L228.612 230.294ZM223.709 230.88L220.489 231.995L221.797 235.775L225.017 234.661L223.709 230.88ZM223.033 233.231L222.722 232.332L218.942 233.639L219.253 234.538L223.033 233.231ZM221.486 234.875L224.706 233.761L223.398 229.981L220.178 231.095L221.486 234.875ZM222.162 232.525L222.473 233.424L226.253 232.117L225.942 231.217L222.162 232.525ZM217.26 233.112L214.04 234.226L215.347 238.006L218.568 236.892L217.26 233.112ZM216.584 235.462L216.272 234.563L212.492 235.871L212.803 236.77L216.584 235.462ZM215.036 237.107L218.257 235.993L216.949 232.213L213.728 233.327L215.036 237.107ZM215.713 234.757L216.024 235.656L219.804 234.348L219.493 233.449L215.713 234.757ZM210.81 235.343L207.617 236.448L208.925 240.228L212.118 239.123L210.81 235.343ZM210.161 237.684L209.85 236.785L206.07 238.093L206.381 238.992L210.161 237.684ZM208.614 239.329L211.834 238.215L210.526 234.435L207.306 235.549L208.614 239.329ZM209.271 236.921L209.555 237.83L213.373 236.637L213.089 235.728L209.271 236.921ZM204.37 237.571L201.14 238.689L202.448 242.469L205.677 241.352L204.37 237.571ZM203.684 239.925L203.373 239.026L199.593 240.334L199.904 241.233L203.684 239.925ZM202.137 241.57L205.366 240.452L204.058 236.672L200.829 237.79L202.137 241.57ZM202.822 239.216L203.133 240.115L206.914 238.808L206.602 237.908L202.822 239.216ZM197.92 239.803L194.7 240.917L196.007 244.697L199.228 243.583L197.92 239.803ZM197.244 242.153L196.933 241.254L193.152 242.562L193.463 243.461L197.244 242.153ZM195.696 243.798L198.917 242.684L197.609 238.904L194.389 240.018L195.696 243.798ZM196.373 241.448L196.684 242.347L200.464 241.039L200.153 240.14L196.373 241.448ZM191.47 242.034L188.25 243.148L189.558 246.928L192.778 245.814L191.47 242.034ZM190.794 244.384L190.483 243.485L186.703 244.793L187.014 245.692L190.794 244.384ZM189.247 246.029L192.467 244.915L191.159 241.135L187.939 242.249L189.247 246.029ZM189.923 243.679L190.234 244.578L194.014 243.27L193.703 242.371L189.923 243.679ZM185.021 244.266L181.8 245.38L183.108 249.16L186.328 248.046L185.021 244.266ZM184.344 246.616L184.033 245.717L180.253 247.025L180.564 247.924L184.344 246.616ZM182.797 248.261L186.017 247.147L184.71 243.366L181.489 244.481L182.797 248.261ZM183.473 245.91L183.784 246.81L187.565 245.502L187.254 244.603L183.473 245.91ZM178.58 246.494L175.351 247.611L176.659 251.391L179.888 250.274L178.58 246.494ZM177.895 248.847L177.584 247.948L173.803 249.256L174.115 250.155L177.895 248.847ZM176.347 250.492L179.586 249.372L178.278 245.592L175.04 246.712L176.347 250.492ZM177.035 248.116L177.337 249.019L181.131 247.749L180.829 246.847L177.035 248.116ZM172.13 248.725L168.901 249.843L170.209 253.623L173.438 252.505L172.13 248.725ZM171.445 251.079L171.134 250.18L167.354 251.487L167.665 252.386L171.445 251.079ZM169.898 252.723L173.127 251.606L171.819 247.826L168.59 248.943L169.898 252.723ZM170.583 250.37L170.894 251.269L174.674 249.961L174.363 249.062L170.583 250.37ZM165.681 250.957L162.46 252.071L163.768 255.851L166.989 254.737L165.681 250.957ZM165.004 253.307L164.693 252.408L160.913 253.716L161.224 254.615L165.004 253.307ZM163.457 254.952L166.678 253.838L165.37 250.057L162.149 251.172L163.457 254.952ZM164.134 252.601L164.445 253.501L168.225 252.193L167.914 251.294L164.134 252.601ZM159.231 253.188L156.011 254.302L157.319 258.082L160.539 256.968L159.231 253.188ZM158.555 255.538L158.244 254.639L154.464 255.947L154.775 256.846L158.555 255.538ZM157.008 257.183L160.228 256.069L158.92 252.289L155.7 253.403L157.008 257.183ZM157.684 254.833L157.995 255.732L161.775 254.424L161.464 253.525L157.684 254.833ZM152.781 255.419L149.561 256.534L150.869 260.314L154.089 259.2L152.781 255.419ZM152.105 257.77L151.794 256.871L148.014 258.178L148.325 259.078L152.105 257.77ZM150.558 259.415L153.778 258.3L152.47 254.52L149.25 255.634L150.558 259.415ZM151.234 257.064L151.545 257.963L155.325 256.656L155.014 255.756L151.234 257.064ZM146.341 257.648L143.112 258.765L144.419 262.545L147.649 261.428L146.341 257.648ZM145.656 260.001L145.344 259.102L141.564 260.41L141.875 261.309L145.656 260.001ZM144.108 261.646L147.338 260.529L146.03 256.749L142.8 257.866L144.108 261.646ZM144.794 259.292L145.105 260.192L148.885 258.884L148.574 257.985L144.794 259.292ZM139.891 259.879L136.671 260.993L137.979 264.773L141.199 263.659L139.891 259.879ZM139.215 262.229L138.904 261.33L135.124 262.638L135.435 263.537L139.215 262.229ZM137.668 263.874L140.888 262.76L139.58 258.98L136.36 260.094L137.668 263.874ZM138.344 261.524L138.655 262.423L142.435 261.115L142.124 260.216L138.344 261.524ZM133.442 262.11L130.221 263.225L131.529 267.005L134.749 265.891L133.442 262.11ZM132.765 264.461L132.454 263.562L128.674 264.869L128.985 265.769L132.765 264.461ZM131.218 266.106L134.438 264.991L133.131 261.211L129.91 262.325L131.218 266.106ZM131.894 263.755L132.205 264.654L135.986 263.347L135.675 262.447L131.894 263.755ZM126.992 264.342L123.772 265.456L125.079 269.236L128.3 268.122L126.992 264.342ZM126.316 266.692L126.005 265.793L122.224 267.101L122.536 268L126.316 266.692ZM124.768 268.337L127.989 267.223L126.681 263.443L123.461 264.557L124.768 268.337ZM125.445 265.987L125.756 266.886L129.536 265.578L129.225 264.679L125.445 265.987ZM120.551 266.57L117.322 267.687L118.63 271.468L121.859 270.35L120.551 266.57ZM119.866 268.924L119.555 268.024L115.775 269.332L116.086 270.231L119.866 268.924ZM118.319 270.568L121.53 269.457L120.222 265.677L117.011 266.788L118.319 270.568ZM119 268.259L119.329 269.152L123.082 267.768L122.753 266.875L119 268.259ZM114.102 268.801L110.872 269.919L112.18 273.699L115.41 272.582L114.102 268.801ZM113.416 271.155L113.105 270.256L109.325 271.564L109.636 272.463L113.416 271.155ZM111.869 272.8L115.098 271.682L113.791 267.902L110.561 269.02L111.869 272.8ZM112.554 270.446L112.866 271.345L116.646 270.038L116.335 269.138L112.554 270.446Z" fill="#911475" mask="url(#path-2-inside-1_2135_304)"/>
</g>
</g>
<g opacity="0.75">
<mask id="path-4-inside-2_2135_304" fill="white">
<path d="M540.115 122.522L469.981 146.786L470.292 147.685L540.426 123.421L540.115 122.522Z"/>
</mask>
<path d="M469.981 146.786L469.327 144.896L467.437 145.55L468.091 147.44L469.981 146.786ZM540.115 122.522L542.005 121.868L541.351 119.978L539.461 120.631L540.115 122.522ZM540.426 123.421L541.08 125.311L542.97 124.657L542.316 122.767L540.426 123.421ZM470.292 147.685L468.402 148.339L469.056 150.229L470.946 149.575L470.292 147.685ZM470.635 148.676L540.769 124.412L539.461 120.631L469.327 144.896L470.635 148.676ZM538.225 123.175L538.536 124.075L542.316 122.767L542.005 121.868L538.225 123.175ZM539.772 121.531L469.638 145.795L470.946 149.575L541.08 125.311L539.772 121.531ZM472.182 147.031L471.871 146.132L468.091 147.44L468.402 148.339L472.182 147.031Z" fill="#5D0B83" mask="url(#path-4-inside-2_2135_304)"/>
</g>
<path d="M165.654 357.975L168.222 350.81L161.057 348.242L158.489 355.408L165.654 357.975Z" fill="#FFD43C"/>
<path d="M178.238 350.558L180.034 345.548L175.023 343.752L173.228 348.763L178.238 350.558Z" fill="#FBAD41"/>
<path d="M190.048 345.591L191.843 340.581L186.833 338.786L185.037 343.796L190.048 345.591Z" fill="#FBAD41"/>
<line x1="199.878" y1="336.716" x2="265.912" y2="305.394" stroke="#911475" stroke-width="2" stroke-dasharray="7.69 7.69"/>
<mask id="path-10-inside-3_2135_304" fill="white">
<path d="M562.808 164.275L400.295 241.037L401.018 242.566L563.53 165.804L562.808 164.275Z"/>
</mask>
<path d="M562.808 164.275L400.295 241.037L401.018 242.566L563.53 165.804L562.808 164.275Z" fill="#E2F5FA"/>
<path d="M400.295 241.037L399.441 239.229L397.633 240.083L398.487 241.891L400.295 241.037ZM562.808 164.275L564.617 163.42L563.762 161.612L561.954 162.466L562.808 164.275ZM563.53 165.804L564.385 167.612L566.193 166.758L565.339 164.949L563.53 165.804ZM401.018 242.566L399.209 243.42L400.063 245.229L401.872 244.374L401.018 242.566ZM401.15 242.846L563.662 166.083L561.954 162.466L399.441 239.229L401.15 242.846ZM561 165.129L561.722 166.658L565.339 164.949L564.617 163.42L561 165.129ZM562.676 163.995L400.163 240.758L401.872 244.374L564.385 167.612L562.676 163.995ZM402.826 241.712L402.104 240.183L398.487 241.891L399.209 243.42L402.826 241.712Z" fill="#911475" mask="url(#path-10-inside-3_2135_304)"/>
<mask id="path-12-inside-4_2135_304" fill="white">
<path d="M554.838 160.405L554.263 162.206L563.166 165.041L559.701 173.718L561.457 174.418L565.685 163.851L554.838 160.405Z"/>
</mask>
<path d="M554.838 160.405L554.263 162.206L563.166 165.041L559.701 173.718L561.457 174.418L565.685 163.851L554.838 160.405Z" fill="#003682" fill-opacity="0.8"/>
<path d="M554.838 160.405L555.443 158.499L553.539 157.894L552.932 159.798L554.838 160.405ZM554.263 162.206L552.358 161.599L551.75 163.505L553.656 164.112L554.263 162.206ZM563.166 165.041L565.024 165.783L565.821 163.787L563.773 163.135L563.166 165.041ZM559.701 173.718L557.844 172.976L557.102 174.834L558.96 175.576L559.701 173.718ZM561.457 174.418L560.716 176.276L562.571 177.016L563.313 175.161L561.457 174.418ZM565.685 163.851L567.542 164.594L568.341 162.597L566.29 161.945L565.685 163.851ZM552.932 159.798L552.358 161.599L556.169 162.814L556.743 161.013L552.932 159.798ZM553.656 164.112L562.56 166.947L563.773 163.135L554.87 160.3L553.656 164.112ZM561.309 164.299L557.844 172.976L561.558 174.46L565.024 165.783L561.309 164.299ZM558.96 175.576L560.716 176.276L562.198 172.561L560.442 171.86L558.96 175.576ZM563.313 175.161L567.542 164.594L563.828 163.109L559.6 173.675L563.313 175.161ZM566.29 161.945L555.443 158.499L554.232 162.311L565.079 165.758L566.29 161.945Z" fill="#911475" mask="url(#path-12-inside-4_2135_304)"/>
<path d="M54.4253 335.447L51.6033 328.377L44.5341 331.199L47.3561 338.269L54.4253 335.447Z" fill="#FBAD41"/>
<path d="M41.6067 339.167L40.0349 335.229L36.0976 336.801L37.6694 340.739L41.6067 339.167Z" fill="#FBAD41"/>
<path d="M33.0086 342.238L31.4369 338.3L27.4996 339.872L29.0714 343.809L33.0086 342.238Z" fill="#FFD43C"/>
<line x1="57.837" y1="329.905" x2="240.808" y2="256.776" stroke="#911475" stroke-width="2" stroke-dasharray="7.69 7.69"/>
<path d="M220.931 267.367L220.241 265.638L592.16 117.169L592.85 118.898L220.931 267.367Z" fill="#E2F5FA" stroke="#911475" stroke-width="2"/>
<path d="M588.227 135.225L586.551 134.434L594.26 118.121L594.72 117.148L593.716 116.761L576.902 110.273L577.57 108.516L597.263 116.134L588.227 135.225Z" fill="#E2F5FA" stroke="#911475" stroke-width="2"/>
<line x1="72.1599" y1="256.674" x2="221.628" y2="209.123" stroke="#911475" stroke-width="2" stroke-dasharray="7.69 7.69"/>
<rect x="139.393" y="216.306" width="33.2537" height="28.4168" transform="rotate(2.97717 139.393 216.306)" fill="#FC722C"/>
<path d="M151.818 233.722C153.336 233.205 154.148 231.556 153.631 230.038C153.115 228.521 151.466 227.709 149.948 228.225C148.43 228.741 147.618 230.39 148.135 231.908C148.651 233.426 150.3 234.238 151.818 233.722Z" fill="#FC722C"/>
<path d="M166.593 229.041C168.111 228.525 168.922 226.876 168.406 225.358C167.89 223.84 166.241 223.028 164.723 223.544C163.205 224.06 162.393 225.709 162.91 227.227C163.426 228.745 165.075 229.557 166.593 229.041Z" fill="#FBAD41"/>
<path d="M156.744 232.161C158.261 231.645 159.073 229.996 158.557 228.478C158.041 226.961 156.392 226.149 154.874 226.665C153.356 227.181 152.544 228.83 153.061 230.348C153.577 231.866 155.226 232.678 156.744 232.161Z" fill="#FBAD41"/>
<path d="M146.515 236.671C148.505 235.994 149.569 233.832 148.892 231.843C148.215 229.853 146.054 228.788 144.064 229.465C142.074 230.142 141.009 232.304 141.686 234.294C142.363 236.283 144.525 237.348 146.515 236.671Z" fill="#FFD43C"/>
<mask id="path-26-inside-5_2135_304" fill="white">
<path d="M512.772 109.01L322.122 173.855L322.732 175.649L513.382 110.804L512.772 109.01Z"/>
</mask>
<path d="M512.772 109.01L322.122 173.855L322.732 175.649L513.382 110.804L512.772 109.01Z" fill="#E2F5FA"/>
<path d="M322.122 173.855L321.478 171.962L319.584 172.606L320.228 174.499L322.122 173.855ZM512.772 109.01L514.665 108.366L514.021 106.472L512.128 107.116L512.772 109.01ZM513.382 110.804L514.026 112.697L515.919 112.053L515.275 110.159L513.382 110.804ZM322.732 175.649L320.839 176.293L321.483 178.186L323.376 177.542L322.732 175.649ZM322.766 175.748L513.416 110.903L512.128 107.116L321.478 171.962L322.766 175.748ZM510.878 109.654L511.488 111.448L515.275 110.159L514.665 108.366L510.878 109.654ZM512.738 108.91L322.088 173.755L323.376 177.542L514.026 112.697L512.738 108.91ZM324.625 175.005L324.015 173.211L320.228 174.499L320.839 176.293L324.625 175.005Z" fill="#911475" mask="url(#path-26-inside-5_2135_304)"/>
<mask id="path-28-inside-6_2135_304" fill="white">
<path d="M504.627 104.596L503.852 106.32L512.377 110.144L507.946 118.356L509.617 119.268L515.014 109.248L504.627 104.596Z"/>
</mask>
<path d="M504.627 104.596L503.852 106.32L512.377 110.144L507.946 118.356L509.617 119.268L515.014 109.248L504.627 104.596Z" fill="#E2F5FA"/>
<path d="M504.627 104.596L505.444 102.771L503.621 101.954L502.802 103.777L504.627 104.596ZM503.852 106.32L502.028 105.501L501.208 107.326L503.034 108.145L503.852 106.32ZM512.377 110.144L514.137 111.094L515.159 109.201L513.196 108.32L512.377 110.144ZM507.946 118.356L506.186 117.406L505.241 119.157L506.987 120.111L507.946 118.356ZM509.617 119.268L508.659 121.024L510.424 121.988L511.378 120.217L509.617 119.268ZM515.014 109.248L516.775 110.196L517.795 108.302L515.832 107.422L515.014 109.248ZM502.802 103.777L502.028 105.501L505.677 107.139L506.451 105.415L502.802 103.777ZM503.034 108.145L511.559 111.969L513.196 108.32L504.671 104.495L503.034 108.145ZM510.617 109.195L506.186 117.406L509.706 119.306L514.137 111.094L510.617 109.195ZM506.987 120.111L508.659 121.024L510.576 117.513L508.904 116.6L506.987 120.111ZM511.378 120.217L516.775 110.196L513.253 108.299L507.856 118.32L511.378 120.217ZM515.832 107.422L505.444 102.771L503.809 106.421L514.197 111.073L515.832 107.422Z" fill="#911475" mask="url(#path-28-inside-6_2135_304)"/>
<mask id="mask0_2135_304" style="mask-type:alpha" maskUnits="userSpaceOnUse" x="195" y="46" width="328" height="328">
<circle cx="359.109" cy="210" r="163.65" transform="rotate(-21.7617 359.109 210)" fill="#0055DC"/>
</mask>
<g mask="url(#mask0_2135_304)">
<circle cx="359.308" cy="210.259" r="163.65" transform="rotate(-21.7617 359.308 210.259)" fill="#FF9A0E"/>
<g opacity="0.75">
<mask id="path-32-inside-7_2135_304" fill="white">
<path d="M307.38 252.954L305.049 254.045L304.646 253.184L306.976 252.093L307.38 252.954ZM302.719 255.137L300.383 256.231L299.979 255.37L302.342 254.263L302.719 255.137ZM298.052 257.322L295.716 258.417L295.312 257.555L297.649 256.461L298.052 257.322ZM293.385 259.508L291.055 260.6L290.652 259.738L292.982 258.647L293.385 259.508ZM288.719 261.694L286.388 262.785L285.985 261.924L288.315 260.832L288.719 261.694ZM284.052 263.88L281.741 264.962L281.338 264.1L283.668 263.009L284.052 263.88ZM279.391 266.062L277.055 267.157L276.651 266.295L278.988 265.201L279.391 266.062ZM274.724 268.248L272.394 269.339L271.991 268.478L274.321 267.386L274.724 268.248ZM270.058 270.434L267.727 271.525L267.324 270.663L269.654 269.572L270.058 270.434ZM265.391 272.619L263.061 273.711L262.657 272.849L264.987 271.758L265.391 272.619ZM260.73 274.802L258.394 275.896L257.99 275.035L260.333 273.937L260.73 274.802ZM256.063 276.988L253.727 278.082L253.323 277.22L255.66 276.126L256.063 276.988ZM251.397 279.173L249.066 280.265L248.663 279.403L250.993 278.312L251.397 279.173ZM246.73 281.359L244.399 282.45L243.996 281.589L246.326 280.498L246.73 281.359ZM242.063 283.545L239.733 284.636L239.329 283.775L241.659 282.683L242.063 283.545ZM237.402 285.728L235.066 286.822L234.662 285.96L236.999 284.866L237.402 285.728ZM232.736 287.913L230.399 289.008L229.995 288.146L232.332 287.052L232.736 287.913ZM228.069 290.099L225.738 291.19L225.335 290.329L227.665 289.237L228.069 290.099ZM223.402 292.285L221.072 293.376L220.668 292.514L222.998 291.423L223.402 292.285ZM218.741 294.467L216.405 295.562L216.001 294.7L218.325 293.612L218.741 294.467ZM214.075 296.653L211.738 297.747L211.334 296.886L213.671 295.791L214.075 296.653Z"/>
</mask>
<path d="M307.38 252.954L308.228 254.765L310.039 253.917L309.191 252.106L307.38 252.954ZM305.049 254.045L303.238 254.894L304.087 256.705L305.898 255.857L305.049 254.045ZM304.646 253.184L303.798 251.373L301.986 252.221L302.835 254.032L304.646 253.184ZM306.976 252.093L308.787 251.244L307.939 249.433L306.128 250.281L306.976 252.093ZM302.719 255.137L303.568 256.948L305.324 256.125L304.555 254.344L302.719 255.137ZM300.383 256.231L298.571 257.079L299.42 258.891L301.231 258.042L300.383 256.231ZM299.979 255.37L299.131 253.558L297.32 254.407L298.168 256.218L299.979 255.37ZM302.342 254.263L304.178 253.47L303.361 251.577L301.494 252.452L302.342 254.263ZM298.052 257.322L298.901 259.134L300.712 258.285L299.864 256.474L298.052 257.322ZM295.716 258.417L293.904 259.265L294.753 261.076L296.564 260.228L295.716 258.417ZM295.312 257.555L294.464 255.744L292.653 256.592L293.501 258.404L295.312 257.555ZM297.649 256.461L299.46 255.613L298.612 253.801L296.801 254.65L297.649 256.461ZM293.385 259.508L294.234 261.319L296.045 260.471L295.197 258.66L293.385 259.508ZM291.055 260.6L289.244 261.448L290.092 263.259L291.904 262.411L291.055 260.6ZM290.652 259.738L289.804 257.927L287.992 258.775L288.841 260.586L290.652 259.738ZM292.982 258.647L294.793 257.798L293.945 255.987L292.134 256.835L292.982 258.647ZM288.719 261.694L289.567 263.505L291.378 262.657L290.53 260.846L288.719 261.694ZM286.388 262.785L284.577 263.634L285.425 265.445L287.237 264.596L286.388 262.785ZM285.985 261.924L285.137 260.112L283.325 260.961L284.174 262.772L285.985 261.924ZM288.315 260.832L290.126 259.984L289.278 258.173L287.467 259.021L288.315 260.832ZM284.052 263.88L284.9 265.691L286.67 264.862L285.882 263.073L284.052 263.88ZM281.741 264.962L279.93 265.81L280.778 267.621L282.589 266.773L281.741 264.962ZM281.338 264.1L280.489 262.289L278.678 263.137L279.526 264.948L281.338 264.1ZM283.668 263.009L285.498 262.202L284.673 260.33L282.82 261.198L283.668 263.009ZM279.391 266.062L280.24 267.873L282.051 267.025L281.203 265.214L279.391 266.062ZM277.055 267.157L275.243 268.005L276.092 269.816L277.903 268.968L277.055 267.157ZM276.651 266.295L275.803 264.484L273.992 265.332L274.84 267.143L276.651 266.295ZM278.988 265.201L280.799 264.352L279.951 262.541L278.14 263.389L278.988 265.201ZM274.724 268.248L275.573 270.059L277.384 269.211L276.536 267.4L274.724 268.248ZM272.394 269.339L270.583 270.188L271.431 271.999L273.243 271.15L272.394 269.339ZM271.991 268.478L271.142 266.666L269.331 267.515L270.18 269.326L271.991 268.478ZM274.321 267.386L276.132 266.538L275.284 264.727L273.473 265.575L274.321 267.386ZM270.058 270.434L270.906 272.245L272.717 271.397L271.869 269.585L270.058 270.434ZM267.727 271.525L265.916 272.373L266.764 274.184L268.576 273.336L267.727 271.525ZM267.324 270.663L266.476 268.852L264.664 269.7L265.513 271.512L267.324 270.663ZM269.654 269.572L271.465 268.724L270.617 266.913L268.806 267.761L269.654 269.572ZM265.391 272.619L266.239 274.431L268.05 273.582L267.202 271.771L265.391 272.619ZM263.061 273.711L261.249 274.559L262.098 276.37L263.909 275.522L263.061 273.711ZM262.657 272.849L261.809 271.038L259.997 271.886L260.846 273.697L262.657 272.849ZM264.987 271.758L266.798 270.909L265.95 269.098L264.139 269.947L264.987 271.758ZM260.73 274.802L261.579 276.613L263.376 275.771L262.548 273.968L260.73 274.802ZM258.394 275.896L256.582 276.745L257.431 278.556L259.242 277.708L258.394 275.896ZM257.99 275.035L257.142 273.224L255.331 274.072L256.179 275.883L257.99 275.035ZM260.333 273.937L262.151 273.103L261.31 271.271L259.485 272.126L260.333 273.937ZM256.063 276.988L256.912 278.799L258.723 277.951L257.875 276.139L256.063 276.988ZM253.727 278.082L251.916 278.93L252.764 280.742L254.575 279.893L253.727 278.082ZM253.323 277.22L252.475 275.409L250.664 276.258L251.512 278.069L253.323 277.22ZM255.66 276.126L257.471 275.278L256.623 273.467L254.812 274.315L255.66 276.126ZM251.397 279.173L252.245 280.985L254.056 280.136L253.208 278.325L251.397 279.173ZM249.066 280.265L247.255 281.113L248.103 282.924L249.915 282.076L249.066 280.265ZM248.663 279.403L247.815 277.592L246.003 278.44L246.852 280.251L248.663 279.403ZM250.993 278.312L252.804 277.464L251.956 275.652L250.145 276.501L250.993 278.312ZM246.73 281.359L247.578 283.17L249.389 282.322L248.541 280.511L246.73 281.359ZM244.399 282.45L242.588 283.299L243.437 285.11L245.248 284.262L244.399 282.45ZM243.996 281.589L243.148 279.778L241.336 280.626L242.185 282.437L243.996 281.589ZM246.326 280.498L248.137 279.649L247.289 277.838L245.478 278.686L246.326 280.498ZM242.063 283.545L242.911 285.356L244.722 284.508L243.874 282.697L242.063 283.545ZM239.733 284.636L237.921 285.484L238.77 287.296L240.581 286.447L239.733 284.636ZM239.329 283.775L238.481 281.963L236.67 282.812L237.518 284.623L239.329 283.775ZM241.659 282.683L243.47 281.835L242.622 280.024L240.811 280.872L241.659 282.683ZM237.402 285.728L238.251 287.539L240.062 286.69L239.214 284.879L237.402 285.728ZM235.066 286.822L233.254 287.67L234.103 289.481L235.914 288.633L235.066 286.822ZM234.662 285.96L233.814 284.149L232.003 284.997L232.851 286.809L234.662 285.96ZM236.999 284.866L238.81 284.018L237.962 282.206L236.151 283.055L236.999 284.866ZM232.736 287.913L233.584 289.724L235.395 288.876L234.547 287.065L232.736 287.913ZM230.399 289.008L228.588 289.856L229.436 291.667L231.247 290.819L230.399 289.008ZM229.995 288.146L229.147 286.335L227.336 287.183L228.184 288.994L229.995 288.146ZM232.332 287.052L234.143 286.203L233.295 284.392L231.484 285.24L232.332 287.052ZM228.069 290.099L228.917 291.91L230.728 291.062L229.88 289.251L228.069 290.099ZM225.738 291.19L223.927 292.039L224.776 293.85L226.587 293.001L225.738 291.19ZM225.335 290.329L224.487 288.517L222.675 289.366L223.524 291.177L225.335 290.329ZM227.665 289.237L229.476 288.389L228.628 286.578L226.817 287.426L227.665 289.237ZM223.402 292.285L224.25 294.096L226.061 293.248L225.213 291.436L223.402 292.285ZM221.072 293.376L219.26 294.224L220.109 296.035L221.92 295.187L221.072 293.376ZM220.668 292.514L219.82 290.703L218.009 291.551L218.857 293.363L220.668 292.514ZM222.998 291.423L224.809 290.575L223.961 288.764L222.15 289.612L222.998 291.423ZM218.741 294.467L219.59 296.278L221.429 295.417L220.539 293.592L218.741 294.467ZM216.405 295.562L214.593 296.41L215.442 298.221L217.253 297.373L216.405 295.562ZM216.001 294.7L215.153 292.889L213.342 293.737L214.19 295.548L216.001 294.7ZM218.325 293.612L220.123 292.736L219.26 290.965L217.476 291.801L218.325 293.612ZM214.075 296.653L214.923 298.464L216.734 297.616L215.886 295.805L214.075 296.653ZM211.738 297.747L209.927 298.596L210.775 300.407L212.586 299.559L211.738 297.747ZM211.334 296.886L210.486 295.075L208.675 295.923L209.523 297.734L211.334 296.886ZM213.671 295.791L215.482 294.943L214.634 293.132L212.823 293.98L213.671 295.791ZM306.531 251.143L304.201 252.234L305.898 255.857L308.228 254.765L306.531 251.143ZM306.861 253.197L306.457 252.336L302.835 254.032L303.238 254.894L306.861 253.197ZM305.494 254.995L307.824 253.904L306.128 250.281L303.798 251.373L305.494 254.995ZM305.165 252.941L305.568 253.802L309.191 252.106L308.787 251.244L305.165 252.941ZM301.871 253.326L299.534 254.42L301.231 258.042L303.568 256.948L301.871 253.326ZM302.194 255.383L301.79 254.521L298.168 256.218L298.571 257.079L302.194 255.383ZM300.827 257.181L303.19 256.074L301.494 252.452L299.131 253.558L300.827 257.181ZM300.506 255.056L300.883 255.93L304.555 254.344L304.178 253.47L300.506 255.056ZM297.204 255.511L294.867 256.606L296.564 260.228L298.901 259.134L297.204 255.511ZM297.527 257.569L297.123 256.707L293.501 258.404L293.904 259.265L297.527 257.569ZM296.16 259.366L298.497 258.272L296.801 254.65L294.464 255.744L296.16 259.366ZM295.838 257.309L296.241 258.171L299.864 256.474L299.46 255.613L295.838 257.309ZM292.537 257.697L290.207 258.788L291.904 262.411L294.234 261.319L292.537 257.697ZM292.867 259.751L292.463 258.89L288.841 260.586L289.244 261.448L292.867 259.751ZM291.5 261.549L293.83 260.458L292.134 256.835L289.804 257.927L291.5 261.549ZM291.171 259.495L291.574 260.356L295.197 258.66L294.793 257.798L291.171 259.495ZM287.87 259.883L285.54 260.974L287.237 264.596L289.567 263.505L287.87 259.883ZM288.2 261.937L287.796 261.075L284.174 262.772L284.577 263.634L288.2 261.937ZM286.833 263.735L289.163 262.643L287.467 259.021L285.137 260.112L286.833 263.735ZM286.504 261.681L286.907 262.542L290.53 260.846L290.126 259.984L286.504 261.681ZM283.203 262.068L280.893 263.151L282.589 266.773L284.9 265.691L283.203 262.068ZM283.552 264.113L283.149 263.252L279.526 264.948L279.93 265.81L283.552 264.113ZM282.186 265.911L284.516 264.82L282.82 261.198L280.489 262.289L282.186 265.911ZM281.838 263.815L282.222 264.686L285.882 263.073L285.498 262.202L281.838 263.815ZM278.543 264.251L276.206 265.345L277.903 268.968L280.24 267.873L278.543 264.251ZM278.866 266.308L278.462 265.447L274.84 267.143L275.243 268.005L278.866 266.308ZM277.499 268.106L279.836 267.012L278.14 263.389L275.803 264.484L277.499 268.106ZM277.177 266.049L277.58 266.911L281.203 265.214L280.799 264.352L277.177 266.049ZM273.876 266.437L271.546 267.528L273.243 271.15L275.573 270.059L273.876 266.437ZM274.206 268.491L273.802 267.629L270.18 269.326L270.583 270.188L274.206 268.491ZM272.839 270.289L275.169 269.198L273.473 265.575L271.142 266.666L272.839 270.289ZM272.51 268.235L272.913 269.096L276.536 267.4L276.132 266.538L272.51 268.235ZM269.209 268.622L266.879 269.714L268.576 273.336L270.906 272.245L269.209 268.622ZM269.539 270.677L269.135 269.815L265.513 271.512L265.916 272.373L269.539 270.677ZM268.172 272.475L270.502 271.383L268.806 267.761L266.476 268.852L268.172 272.475ZM267.843 270.42L268.246 271.282L271.869 269.585L271.465 268.724L267.843 270.42ZM264.542 270.808L262.212 271.9L263.909 275.522L266.239 274.431L264.542 270.808ZM264.872 272.862L264.468 272.001L260.846 273.697L261.249 274.559L264.872 272.862ZM263.505 274.66L265.835 273.569L264.139 269.947L261.809 271.038L263.505 274.66ZM263.176 272.606L263.579 273.468L267.202 271.771L266.798 270.909L263.176 272.606ZM259.882 272.991L257.545 274.085L259.242 277.708L261.579 276.613L259.882 272.991ZM260.205 275.048L259.801 274.187L256.179 275.883L256.582 276.745L260.205 275.048ZM258.838 276.846L261.182 275.749L259.485 272.126L257.142 273.224L258.838 276.846ZM258.516 274.772L258.913 275.636L262.548 273.968L262.151 273.103L258.516 274.772ZM255.215 275.177L252.878 276.271L254.575 279.893L256.912 278.799L255.215 275.177ZM255.538 277.234L255.134 276.372L251.512 278.069L251.916 278.93L255.538 277.234ZM254.171 279.032L256.508 277.937L254.812 274.315L252.475 275.409L254.171 279.032ZM253.849 276.974L254.252 277.836L257.875 276.139L257.471 275.278L253.849 276.974ZM250.548 277.362L248.218 278.454L249.915 282.076L252.245 280.985L250.548 277.362ZM250.878 279.417L250.474 278.555L246.852 280.251L247.255 281.113L250.878 279.417ZM249.511 281.214L251.841 280.123L250.145 276.501L247.815 277.592L249.511 281.214ZM249.182 279.16L249.585 280.022L253.208 278.325L252.804 277.464L249.182 279.16ZM245.881 279.548L243.551 280.639L245.248 284.262L247.578 283.17L245.881 279.548ZM246.211 281.602L245.807 280.741L242.185 282.437L242.588 283.299L246.211 281.602ZM244.844 283.4L247.174 282.309L245.478 278.686L243.148 279.778L244.844 283.4ZM244.515 281.346L244.918 282.207L248.541 280.511L248.137 279.649L244.515 281.346ZM241.214 281.734L238.884 282.825L240.581 286.447L242.911 285.356L241.214 281.734ZM241.544 283.788L241.14 282.926L237.518 284.623L237.921 285.484L241.544 283.788ZM240.177 285.586L242.507 284.494L240.811 280.872L238.481 281.963L240.177 285.586ZM239.848 283.531L240.252 284.393L243.874 282.697L243.47 281.835L239.848 283.531ZM236.554 283.916L234.217 285.011L235.914 288.633L238.251 287.539L236.554 283.916ZM236.877 285.974L236.473 285.112L232.851 286.809L233.254 287.67L236.877 285.974ZM235.51 287.771L237.847 286.677L236.151 283.055L233.814 284.149L235.51 287.771ZM235.188 285.714L235.591 286.576L239.214 284.879L238.81 284.018L235.188 285.714ZM231.887 286.102L229.551 287.196L231.247 290.819L233.584 289.724L231.887 286.102ZM232.21 288.159L231.806 287.298L228.184 288.994L228.588 289.856L232.21 288.159ZM230.844 289.957L233.18 288.863L231.484 285.24L229.147 286.335L230.844 289.957ZM230.521 287.9L230.924 288.761L234.547 287.065L234.143 286.203L230.521 287.9ZM227.22 288.288L224.89 289.379L226.587 293.001L228.917 291.91L227.22 288.288ZM227.55 290.342L227.146 289.48L223.524 291.177L223.927 292.039L227.55 290.342ZM226.183 292.14L228.513 291.048L226.817 287.426L224.487 288.517L226.183 292.14ZM225.854 290.086L226.257 290.947L229.88 289.251L229.476 288.389L225.854 290.086ZM222.553 290.473L220.223 291.565L221.92 295.187L224.25 294.096L222.553 290.473ZM222.883 292.528L222.479 291.666L218.857 293.363L219.26 294.224L222.883 292.528ZM221.516 294.326L223.846 293.234L222.15 289.612L219.82 290.703L221.516 294.326ZM221.187 292.271L221.591 293.133L225.213 291.436L224.809 290.575L221.187 292.271ZM217.893 292.656L215.556 293.75L217.253 297.373L219.59 296.278L217.893 292.656ZM218.216 294.713L217.812 293.852L214.19 295.548L214.593 296.41L218.216 294.713ZM216.849 296.511L219.173 295.423L217.476 291.801L215.153 292.889L216.849 296.511ZM216.527 294.488L216.943 295.343L220.539 293.592L220.123 292.736L216.527 294.488ZM213.226 294.842L210.89 295.936L212.586 299.559L214.923 298.464L213.226 294.842ZM213.549 296.899L213.145 296.037L209.523 297.734L209.927 298.596L213.549 296.899ZM212.182 298.697L214.519 297.603L212.823 293.98L210.486 295.075L212.182 298.697ZM211.86 296.64L212.263 297.501L215.886 295.805L215.482 294.943L211.86 296.64Z" fill="#F2583D" mask="url(#path-32-inside-7_2135_304)"/>
</g>
<g opacity="0.75">
<mask id="path-34-inside-8_2135_304" fill="white">
<path d="M295.235 208.286L292.011 209.39L291.703 208.49L294.927 207.386L295.235 208.286ZM288.788 210.495L285.555 211.603L285.247 210.703L288.516 209.583L288.788 210.495ZM282.332 212.708L279.099 213.815L278.791 212.915L282.023 211.807L282.332 212.708ZM275.876 214.92L272.652 216.025L272.344 215.125L275.567 214.02L275.876 214.92ZM269.42 217.133L266.196 218.237L265.888 217.337L269.111 216.233L269.42 217.133ZM262.963 219.345L259.767 220.441L259.459 219.54L262.682 218.436L262.963 219.345ZM256.516 221.555L253.284 222.662L252.975 221.762L256.208 220.655L256.516 221.555ZM250.06 223.767L246.837 224.872L246.528 223.972L249.752 222.867L250.06 223.767ZM243.604 225.98L240.381 227.084L240.072 226.184L243.296 225.08L243.604 225.98ZM237.148 228.192L233.924 229.297L233.616 228.397L236.839 227.292L237.148 228.192ZM230.701 230.402L227.468 231.509L227.16 230.609L230.401 229.498L230.701 230.402ZM224.245 232.614L221.012 233.722L220.704 232.822L223.936 231.714L224.245 232.614ZM217.789 234.827L214.565 235.931L214.257 235.031L217.48 233.927L217.789 234.827ZM211.332 237.039L208.109 238.144L207.8 237.244L211.024 236.139L211.332 237.039ZM204.876 239.252L201.653 240.356L201.344 239.456L204.568 238.352L204.876 239.252ZM198.429 241.461L195.197 242.569L194.888 241.669L198.121 240.561L198.429 241.461ZM191.973 243.674L188.75 244.778L188.441 243.878L191.665 242.774L191.973 243.674ZM185.517 245.886L182.293 246.991L181.985 246.091L185.209 244.986L185.517 245.886ZM179.061 248.099L175.837 249.204L175.529 248.303L178.752 247.199L179.061 248.099ZM172.614 250.308L169.381 251.416L169.073 250.516L172.287 249.414L172.614 250.308ZM166.158 252.521L162.925 253.629L162.617 252.729L165.849 251.621L166.158 252.521Z"/>
</mask>
<path d="M295.235 208.286L295.883 210.178L297.775 209.529L297.127 207.637L295.235 208.286ZM292.011 209.39L290.119 210.039L290.768 211.931L292.66 211.282L292.011 209.39ZM291.703 208.49L291.055 206.598L289.163 207.247L289.811 209.139L291.703 208.49ZM294.927 207.386L296.819 206.737L296.17 204.845L294.278 205.494L294.927 207.386ZM288.788 210.495L289.436 212.387L291.254 211.764L290.705 209.923L288.788 210.495ZM285.555 211.603L283.663 212.251L284.312 214.143L286.204 213.495L285.555 211.603ZM285.247 210.703L284.598 208.811L282.707 209.459L283.355 211.351L285.247 210.703ZM288.516 209.583L290.432 209.011L289.837 207.015L287.867 207.691L288.516 209.583ZM282.332 212.708L282.98 214.6L284.872 213.951L284.224 212.059L282.332 212.708ZM279.099 213.815L277.207 214.464L277.856 216.356L279.748 215.707L279.099 213.815ZM278.791 212.915L278.142 211.023L276.25 211.672L276.899 213.564L278.791 212.915ZM282.023 211.807L283.915 211.159L283.267 209.267L281.375 209.916L282.023 211.807ZM275.876 214.92L276.524 216.812L278.416 216.164L277.768 214.272L275.876 214.92ZM272.652 216.025L270.76 216.673L271.409 218.565L273.301 217.917L272.652 216.025ZM272.344 215.125L271.695 213.233L269.803 213.881L270.452 215.773L272.344 215.125ZM275.567 214.02L277.459 213.372L276.811 211.48L274.919 212.128L275.567 214.02ZM269.42 217.133L270.068 219.025L271.96 218.376L271.312 216.484L269.42 217.133ZM266.196 218.237L264.304 218.886L264.952 220.778L266.844 220.129L266.196 218.237ZM265.888 217.337L265.239 215.445L263.347 216.094L263.996 217.986L265.888 217.337ZM269.111 216.233L271.003 215.584L270.355 213.692L268.463 214.341L269.111 216.233ZM262.963 219.345L263.612 221.237L265.447 220.608L264.874 218.754L262.963 219.345ZM259.767 220.441L257.875 221.089L258.524 222.981L260.416 222.333L259.767 220.441ZM259.459 219.54L258.81 217.648L256.918 218.297L257.567 220.189L259.459 219.54ZM262.682 218.436L264.593 217.845L263.984 215.875L262.034 216.544L262.682 218.436ZM256.516 221.555L257.165 223.447L259.057 222.798L258.408 220.906L256.516 221.555ZM253.284 222.662L251.392 223.311L252.04 225.203L253.932 224.554L253.284 222.662ZM252.975 221.762L252.327 219.87L250.435 220.519L251.083 222.411L252.975 221.762ZM256.208 220.655L258.1 220.006L257.451 218.114L255.56 218.763L256.208 220.655ZM250.06 223.767L250.709 225.659L252.601 225.011L251.952 223.119L250.06 223.767ZM246.837 224.872L244.945 225.52L245.593 227.412L247.485 226.764L246.837 224.872ZM246.528 223.972L245.88 222.08L243.988 222.728L244.636 224.62L246.528 223.972ZM249.752 222.867L251.644 222.219L250.995 220.327L249.103 220.975L249.752 222.867ZM243.604 225.98L244.252 227.872L246.144 227.223L245.496 225.331L243.604 225.98ZM240.381 227.084L238.489 227.733L239.137 229.625L241.029 228.976L240.381 227.084ZM240.072 226.184L239.424 224.292L237.532 224.941L238.18 226.833L240.072 226.184ZM243.296 225.08L245.188 224.431L244.539 222.539L242.647 223.188L243.296 225.08ZM237.148 228.192L237.796 230.084L239.688 229.436L239.04 227.544L237.148 228.192ZM233.924 229.297L232.032 229.945L232.681 231.837L234.573 231.189L233.924 229.297ZM233.616 228.397L232.968 226.505L231.076 227.153L231.724 229.045L233.616 228.397ZM236.839 227.292L238.731 226.644L238.083 224.752L236.191 225.4L236.839 227.292ZM230.701 230.402L231.349 232.294L233.222 231.652L232.599 229.772L230.701 230.402ZM227.468 231.509L225.576 232.158L226.225 234.05L228.117 233.401L227.468 231.509ZM227.16 230.609L226.511 228.717L224.619 229.366L225.268 231.258L227.16 230.609ZM230.401 229.498L232.3 228.869L231.664 226.951L229.753 227.606L230.401 229.498ZM224.245 232.614L224.893 234.506L226.785 233.858L226.137 231.966L224.245 232.614ZM221.012 233.722L219.12 234.37L219.769 236.262L221.661 235.614L221.012 233.722ZM220.704 232.822L220.055 230.93L218.163 231.578L218.812 233.47L220.704 232.822ZM223.936 231.714L225.828 231.066L225.18 229.174L223.288 229.822L223.936 231.714ZM217.789 234.827L218.437 236.719L220.329 236.07L219.681 234.178L217.789 234.827ZM214.565 235.931L212.673 236.58L213.321 238.472L215.213 237.823L214.565 235.931ZM214.257 235.031L213.608 233.139L211.716 233.788L212.365 235.68L214.257 235.031ZM217.48 233.927L219.372 233.278L218.724 231.386L216.832 232.035L217.48 233.927ZM211.332 237.039L211.981 238.931L213.873 238.283L213.224 236.391L211.332 237.039ZM208.109 238.144L206.217 238.792L206.865 240.684L208.757 240.036L208.109 238.144ZM207.8 237.244L207.152 235.352L205.26 236L205.908 237.892L207.8 237.244ZM211.024 236.139L212.916 235.491L212.268 233.599L210.376 234.247L211.024 236.139ZM204.876 239.252L205.525 241.144L207.417 240.495L206.768 238.603L204.876 239.252ZM201.653 240.356L199.761 241.005L200.409 242.897L202.301 242.248L201.653 240.356ZM201.344 239.456L200.696 237.564L198.804 238.213L199.452 240.105L201.344 239.456ZM204.568 238.352L206.46 237.703L205.811 235.811L203.919 236.46L204.568 238.352ZM198.429 241.461L199.078 243.353L200.97 242.705L200.321 240.813L198.429 241.461ZM195.197 242.569L193.305 243.217L193.953 245.109L195.845 244.461L195.197 242.569ZM194.888 241.669L194.24 239.777L192.348 240.425L192.996 242.317L194.888 241.669ZM198.121 240.561L200.013 239.913L199.364 238.021L197.472 238.669L198.121 240.561ZM191.973 243.674L192.622 245.566L194.513 244.917L193.865 243.025L191.973 243.674ZM188.75 244.778L186.858 245.427L187.506 247.319L189.398 246.67L188.75 244.778ZM188.441 243.878L187.793 241.986L185.901 242.635L186.549 244.527L188.441 243.878ZM191.665 242.774L193.557 242.125L192.908 240.233L191.016 240.882L191.665 242.774ZM185.517 245.886L186.165 247.778L188.057 247.13L187.409 245.238L185.517 245.886ZM182.293 246.991L180.401 247.639L181.05 249.531L182.942 248.883L182.293 246.991ZM181.985 246.091L181.337 244.199L179.445 244.847L180.093 246.739L181.985 246.091ZM185.209 244.986L187.101 244.338L186.452 242.446L184.56 243.094L185.209 244.986ZM179.061 248.099L179.709 249.991L181.601 249.342L180.953 247.45L179.061 248.099ZM175.837 249.204L173.945 249.852L174.594 251.744L176.486 251.095L175.837 249.204ZM175.529 248.303L174.88 246.411L172.988 247.06L173.637 248.952L175.529 248.303ZM178.752 247.199L180.644 246.55L179.996 244.658L178.104 245.307L178.752 247.199ZM172.614 250.308L173.262 252.2L175.193 251.539L174.492 249.622L172.614 250.308ZM169.381 251.416L167.489 252.064L168.138 253.956L170.03 253.308L169.381 251.416ZM169.073 250.516L168.424 248.624L166.532 249.272L167.181 251.164L169.073 250.516ZM172.287 249.414L174.166 248.728L173.493 246.887L171.639 247.522L172.287 249.414ZM166.158 252.521L166.806 254.413L168.698 253.764L168.05 251.872L166.158 252.521ZM162.925 253.629L161.033 254.277L161.681 256.169L163.573 255.521L162.925 253.629ZM162.617 252.729L161.968 250.837L160.076 251.485L160.725 253.377L162.617 252.729ZM165.849 251.621L167.741 250.972L167.093 249.08L165.201 249.729L165.849 251.621ZM294.587 206.394L291.363 207.498L292.66 211.282L295.883 210.178L294.587 206.394ZM293.903 208.742L293.595 207.842L289.811 209.139L290.119 210.039L293.903 208.742ZM292.351 210.382L295.575 209.278L294.278 205.494L291.055 206.598L292.351 210.382ZM293.035 208.034L293.343 208.934L297.127 207.637L296.819 206.737L293.035 208.034ZM288.14 208.603L284.907 209.711L286.204 213.495L289.436 212.387L288.14 208.603ZM287.447 210.954L287.139 210.054L283.355 211.351L283.663 212.251L287.447 210.954ZM285.895 212.595L289.164 211.474L287.867 207.691L284.598 208.811L285.895 212.595ZM286.599 210.154L286.871 211.067L290.705 209.923L290.432 209.011L286.599 210.154ZM281.683 210.816L278.451 211.923L279.748 215.707L282.98 214.6L281.683 210.816ZM280.991 213.167L280.683 212.267L276.899 213.564L277.207 214.464L280.991 213.167ZM279.439 214.807L282.672 213.699L281.375 209.916L278.142 211.023L279.439 214.807ZM280.131 212.456L280.44 213.356L284.224 212.059L283.915 211.159L280.131 212.456ZM275.227 213.028L272.004 214.133L273.301 217.917L276.524 216.812L275.227 213.028ZM274.544 215.376L274.236 214.476L270.452 215.773L270.76 216.673L274.544 215.376ZM272.992 217.017L276.216 215.912L274.919 212.128L271.695 213.233L272.992 217.017ZM273.675 214.668L273.984 215.568L277.768 214.272L277.459 213.372L273.675 214.668ZM268.771 215.241L265.548 216.345L266.844 220.129L270.068 219.025L268.771 215.241ZM268.088 217.589L267.78 216.689L263.996 217.986L264.304 218.886L268.088 217.589ZM266.536 219.229L269.759 218.125L268.463 214.341L265.239 215.445L266.536 219.229ZM267.219 216.881L267.528 217.781L271.312 216.484L271.003 215.584L267.219 216.881ZM262.315 217.453L259.119 218.549L260.416 222.333L263.612 221.237L262.315 217.453ZM261.659 219.792L261.351 218.892L257.567 220.189L257.875 221.089L261.659 219.792ZM260.107 221.432L263.331 220.328L262.034 216.544L258.81 217.648L260.107 221.432ZM260.771 219.027L261.053 219.936L264.874 218.754L264.593 217.845L260.771 219.027ZM255.868 219.663L252.635 220.77L253.932 224.554L257.165 223.447L255.868 219.663ZM255.176 222.014L254.867 221.114L251.083 222.411L251.392 223.311L255.176 222.014ZM253.624 223.654L256.856 222.547L255.56 218.763L252.327 219.87L253.624 223.654ZM254.316 221.303L254.624 222.203L258.408 220.906L258.1 220.006L254.316 221.303ZM249.412 221.875L246.188 222.98L247.485 226.764L250.709 225.659L249.412 221.875ZM248.729 224.223L248.42 223.323L244.636 224.62L244.945 225.52L248.729 224.223ZM247.177 225.864L250.4 224.759L249.103 220.975L245.88 222.08L247.177 225.864ZM247.86 223.515L248.168 224.416L251.952 223.119L251.644 222.219L247.86 223.515ZM242.956 224.088L239.732 225.192L241.029 228.976L244.252 227.872L242.956 224.088ZM242.273 226.436L241.964 225.536L238.18 226.833L238.489 227.733L242.273 226.436ZM240.72 228.076L243.944 226.972L242.647 223.188L239.424 224.292L240.72 228.076ZM241.404 225.728L241.712 226.628L245.496 225.331L245.188 224.431L241.404 225.728ZM236.5 226.3L233.276 227.405L234.573 231.189L237.796 230.084L236.5 226.3ZM235.816 228.649L235.508 227.748L231.724 229.045L232.032 229.945L235.816 228.649ZM234.264 230.289L237.488 229.184L236.191 225.4L232.968 226.505L234.264 230.289ZM234.947 227.941L235.256 228.841L239.04 227.544L238.731 226.644L234.947 227.941ZM230.052 228.51L226.82 229.617L228.117 233.401L231.349 232.294L230.052 228.51ZM229.36 230.861L229.052 229.961L225.268 231.258L225.576 232.158L229.36 230.861ZM227.808 232.501L231.05 231.39L229.753 227.606L226.511 228.717L227.808 232.501ZM228.503 230.128L228.802 231.031L232.599 229.772L232.3 228.869L228.503 230.128ZM223.596 230.722L220.364 231.83L221.661 235.614L224.893 234.506L223.596 230.722ZM222.904 233.074L222.596 232.174L218.812 233.47L219.12 234.37L222.904 233.074ZM221.352 234.714L224.585 233.606L223.288 229.822L220.055 230.93L221.352 234.714ZM222.044 232.362L222.353 233.263L226.137 231.966L225.828 231.066L222.044 232.362ZM217.14 232.935L213.917 234.039L215.213 237.823L218.437 236.719L217.14 232.935ZM216.457 235.283L216.149 234.383L212.365 235.68L212.673 236.58L216.457 235.283ZM214.905 236.923L218.129 235.819L216.832 232.035L213.608 233.139L214.905 236.923ZM215.588 234.575L215.897 235.475L219.681 234.178L219.372 233.278L215.588 234.575ZM210.684 235.147L207.461 236.252L208.757 240.036L211.981 238.931L210.684 235.147ZM210.001 237.496L209.692 236.595L205.908 237.892L206.217 238.792L210.001 237.496ZM208.449 239.136L211.672 238.031L210.376 234.247L207.152 235.352L208.449 239.136ZM209.132 236.788L209.44 237.688L213.224 236.391L212.916 235.491L209.132 236.788ZM204.228 237.36L201.004 238.464L202.301 242.248L205.525 241.144L204.228 237.36ZM203.545 239.708L203.236 238.808L199.452 240.105L199.761 241.005L203.545 239.708ZM201.993 241.348L205.216 240.244L203.919 236.46L200.696 237.564L201.993 241.348ZM202.676 239L202.984 239.9L206.768 238.603L206.46 237.703L202.676 239ZM197.781 239.569L194.548 240.677L195.845 244.461L199.078 243.353L197.781 239.569ZM197.089 241.921L196.78 241.021L192.996 242.317L193.305 243.217L197.089 241.921ZM195.537 243.561L198.769 242.453L197.472 238.669L194.24 239.777L195.537 243.561ZM196.229 241.21L196.537 242.11L200.321 240.813L200.013 239.913L196.229 241.21ZM191.325 241.782L188.101 242.886L189.398 246.67L192.622 245.566L191.325 241.782ZM190.642 244.13L190.333 243.23L186.549 244.527L186.858 245.427L190.642 244.13ZM189.09 245.77L192.313 244.666L191.016 240.882L187.793 241.986L189.09 245.77ZM189.773 243.422L190.081 244.322L193.865 243.025L193.557 242.125L189.773 243.422ZM184.869 243.994L181.645 245.099L182.942 248.883L186.165 247.778L184.869 243.994ZM184.185 246.343L183.877 245.443L180.093 246.739L180.401 247.639L184.185 246.343ZM182.633 247.983L185.857 246.878L184.56 243.094L181.337 244.199L182.633 247.983ZM183.317 245.635L183.625 246.535L187.409 245.238L187.101 244.338L183.317 245.635ZM178.412 246.207L175.189 247.312L176.486 251.095L179.709 249.991L178.412 246.207ZM177.729 248.555L177.421 247.655L173.637 248.952L173.945 249.852L177.729 248.555ZM176.177 250.195L179.401 249.091L178.104 245.307L174.88 246.411L176.177 250.195ZM176.86 247.847L177.169 248.747L180.953 247.45L180.644 246.55L176.86 247.847ZM171.965 248.416L168.733 249.524L170.03 253.308L173.262 252.2L171.965 248.416ZM171.273 250.768L170.965 249.868L167.181 251.164L167.489 252.064L171.273 250.768ZM169.721 252.408L172.936 251.306L171.639 247.522L168.424 248.624L169.721 252.408ZM170.409 250.101L170.735 250.995L174.492 249.622L174.166 248.728L170.409 250.101ZM165.509 250.629L162.277 251.737L163.573 255.521L166.806 254.413L165.509 250.629ZM164.817 252.98L164.509 252.08L160.725 253.377L161.033 254.277L164.817 252.98ZM163.265 254.62L166.498 253.513L165.201 249.729L161.968 250.837L163.265 254.62ZM163.957 252.269L164.266 253.169L168.05 251.872L167.741 250.972L163.957 252.269Z" fill="#F2583D" mask="url(#path-34-inside-8_2135_304)"/>
</g>
<line x1="225.209" y1="325.191" x2="306.271" y2="284.427" stroke="#CD2F55" stroke-width="2" stroke-dasharray="7.69 7.69"/>
<line x1="205.528" y1="270.859" x2="284.844" y2="239.197" stroke="#D33452" stroke-width="2" stroke-dasharray="7.69 7.69"/>
<line x1="166.47" y1="226.497" x2="268.707" y2="196.172" stroke="#D33452" stroke-width="2" stroke-dasharray="7.69 7.69"/>
<g opacity="0.75">
<mask id="path-39-inside-9_2135_304" fill="white">
<path d="M535.701 156.941L481.209 183.657L481.628 184.511L536.12 157.796L535.701 156.941Z"/>
</mask>
<path d="M481.209 183.657L480.329 181.861L478.533 182.741L479.413 184.537L481.209 183.657ZM535.701 156.941L537.497 156.061L536.616 154.265L534.821 155.146L535.701 156.941ZM536.12 157.796L537 159.592L538.796 158.711L537.916 156.915L536.12 157.796ZM481.628 184.511L479.832 185.391L480.712 187.187L482.508 186.307L481.628 184.511ZM482.089 185.453L536.582 158.737L534.821 155.146L480.329 181.861L482.089 185.453ZM533.905 157.822L534.324 158.676L537.916 156.915L537.497 156.061L533.905 157.822ZM535.24 156L480.747 182.715L482.508 186.307L537 159.592L535.24 156ZM483.424 183.631L483.005 182.776L479.413 184.537L479.832 185.391L483.424 183.631Z" fill="#CE2F55" mask="url(#path-39-inside-9_2135_304)"/>
</g>
<g opacity="0.75">
<mask id="path-41-inside-10_2135_304" fill="white">
<path d="M530.522 125.502L460.705 150.667L461.028 151.562L530.845 126.397L530.522 125.502Z"/>
</mask>
<path d="M460.705 150.667L460.027 148.785L458.145 149.463L458.824 151.345L460.705 150.667ZM530.522 125.502L532.404 124.824L531.725 122.943L529.844 123.621L530.522 125.502ZM530.845 126.397L531.523 128.279L533.404 127.601L532.726 125.719L530.845 126.397ZM461.028 151.562L459.146 152.24L459.824 154.121L461.706 153.443L461.028 151.562ZM461.383 152.548L531.2 127.384L529.844 123.621L460.027 148.785L461.383 152.548ZM528.641 126.18L528.963 127.076L532.726 125.719L532.404 124.824L528.641 126.18ZM530.166 124.516L460.35 149.68L461.706 153.443L531.523 128.279L530.166 124.516ZM462.909 150.883L462.587 149.988L458.824 151.345L459.146 152.24L462.909 150.883Z" fill="#CE2F55" mask="url(#path-41-inside-10_2135_304)"/>
</g>
<mask id="path-43-inside-11_2135_304" fill="white">
<path d="M558.863 165.153L398.044 245.404L398.799 246.917L559.618 166.666L558.863 165.153Z"/>
</mask>
<path d="M558.863 165.153L398.044 245.404L398.799 246.917L559.618 166.666L558.863 165.153Z" fill="#FBAD41"/>
<path d="M398.044 245.404L397.151 243.614L395.361 244.507L396.255 246.297L398.044 245.404ZM558.863 165.153L560.652 164.26L559.759 162.47L557.97 163.363L558.863 165.153ZM559.618 166.666L560.511 168.456L562.3 167.563L561.407 165.773L559.618 166.666ZM398.799 246.917L397.01 247.81L397.903 249.599L399.692 248.706L398.799 246.917ZM398.937 247.193L559.756 166.943L557.97 163.363L397.151 243.614L398.937 247.193ZM557.073 166.046L557.828 167.559L561.407 165.773L560.652 164.26L557.073 166.046ZM558.725 164.876L397.906 245.127L399.692 248.706L560.511 168.456L558.725 164.876ZM400.589 246.024L399.834 244.511L396.255 246.297L397.01 247.81L400.589 246.024Z" fill="#CE2F55" mask="url(#path-43-inside-11_2135_304)"/>
<mask id="path-45-inside-12_2135_304" fill="white">
<path d="M580.717 119.995L371.491 203.518L372.193 205.277L581.42 121.755L580.717 119.995Z"/>
</mask>
<path d="M580.717 119.995L371.491 203.518L372.193 205.277L581.42 121.755L580.717 119.995Z" fill="#FBAD41"/>
<path d="M371.491 203.518L370.749 201.66L368.892 202.402L369.633 204.259L371.491 203.518ZM580.717 119.995L582.575 119.254L581.833 117.396L579.976 118.138L580.717 119.995ZM581.42 121.755L582.161 123.612L584.019 122.871L583.277 121.013L581.42 121.755ZM372.193 205.277L370.336 206.019L371.077 207.876L372.935 207.135L372.193 205.277ZM372.232 205.375L581.459 121.852L579.976 118.138L370.749 201.66L372.232 205.375ZM578.86 120.737L579.562 122.496L583.277 121.013L582.575 119.254L578.86 120.737ZM580.678 119.897L371.452 203.42L372.935 207.135L582.161 123.612L580.678 119.897ZM374.051 204.536L373.348 202.776L369.633 204.259L370.336 206.019L374.051 204.536Z" fill="#6ECCE5" mask="url(#path-45-inside-12_2135_304)"/>
<mask id="path-47-inside-13_2135_304" fill="white">
<path d="M542.148 97.7174L353.134 167.185L353.787 168.963L542.802 99.4957L542.148 97.7174Z"/>
</mask>
<path d="M542.148 97.7174L353.134 167.185L353.787 168.963L542.802 99.4957L542.148 97.7174Z" fill="#FBAD41"/>
<path d="M353.134 167.185L352.444 165.308L350.566 165.998L351.256 167.875L353.134 167.185ZM542.148 97.7174L544.025 97.0275L543.335 95.1503L541.458 95.8402L542.148 97.7174ZM542.802 99.4957L543.492 101.373L545.369 100.683L544.679 98.8058L542.802 99.4957ZM353.787 168.963L351.91 169.653L352.6 171.531L354.477 170.841L353.787 168.963ZM353.823 169.062L542.838 99.5947L541.458 95.8402L352.444 165.308L353.823 169.062ZM540.271 98.4074L540.924 100.186L544.679 98.8058L544.025 97.0275L540.271 98.4074ZM542.112 97.6185L353.097 167.086L354.477 170.841L543.492 101.373L542.112 97.6185ZM355.664 168.273L355.011 166.495L351.256 167.875L351.91 169.653L355.664 168.273Z" fill="#CE2F55" mask="url(#path-47-inside-13_2135_304)"/>
<circle cx="359.109" cy="210" r="133.046" transform="rotate(-21.7617 359.109 210)" fill="#FBAD41" stroke="#FFD43C" stroke-width="2"/>
<circle cx="358.95" cy="209.886" r="122.256" transform="rotate(-21.7617 358.95 209.886)" fill="url(#paint1_linear_2135_304)"/>
</g>
<path d="M364.087 156.435L520.962 145.196L357.448 233.13L357.244 233.241L357.108 233.43L298.137 315.989L278.614 171.164L364.087 156.435Z" fill="url(#paint2_linear_2135_304)" stroke="url(#paint3_linear_2135_304)" stroke-width="2"/>
<path d="M521.769 146.201L298.751 316.399L310.489 216.628L521.769 146.201Z" fill="#FFE9CB"/>
<path d="M521.769 146.201L298.751 316.399L310.489 216.628L521.769 146.201Z" fill="#FFF8D6"/>
<path d="M521.769 146.201L298.751 316.399L310.489 216.628L521.769 146.201Z" stroke="url(#paint4_linear_2135_304)" stroke-width="2"/>
<path d="M312.063 216.106L524.615 145.255L432.76 277.276L432.752 277.287C431.314 279.415 428.481 280.067 426.207 278.844C426.206 278.843 426.205 278.843 426.204 278.842L312.063 216.106Z" fill="white" stroke="url(#paint5_linear_2135_304)" stroke-width="2"/>
<path d="M222.308 153.801L222.307 153.8C217.669 151.307 219.464 144.288 224.682 144.288H522.63L519.672 145.688L279.529 184.623L222.308 153.801Z" fill="white" stroke="url(#paint6_linear_2135_304)" stroke-width="2"/>
<path d="M642.632 119.104L636.152 71.04L664.181 66.2098L716.556 62.4575L662.222 91.6774L642.632 119.104Z" fill="url(#paint7_linear_2135_304)" stroke="url(#paint8_linear_2135_304)" stroke-width="2" stroke-linejoin="round"/>
<path d="M646.55 85.8005L642.632 119.104L717.075 62.292L646.55 85.8005Z" fill="#FFF8D6" stroke="url(#paint9_linear_2135_304)" stroke-width="2" stroke-linejoin="round"/>
<path d="M646.553 85.8005L684.202 106.494C685.08 106.967 686.184 106.719 686.747 105.886L717.078 62.292L646.553 85.8005Z" fill="#FFF7EC" stroke="url(#paint10_linear_2135_304)" stroke-width="2" stroke-linejoin="round"/>
<path d="M636.755 76.0063L618.111 65.9634C616.309 64.9952 617.007 62.2705 619.034 62.2705H717.053L714.748 63.361L636.755 76.0063Z" fill="#FFF7EC" stroke="url(#paint11_linear_2135_304)" stroke-width="2" stroke-linejoin="round"/>
</g>
<defs>
<linearGradient id="paint0_linear_2135_304" x1="6.12344" y1="210.001" x2="740" y2="210.001" gradientUnits="userSpaceOnUse">
<stop stop-color="#FF6633"/>
<stop offset="0.5" stop-color="#F6821F"/>
<stop offset="1" stop-color="#FBAD41"/>
</linearGradient>
<linearGradient id="paint1_linear_2135_304" x1="421.63" y1="101.479" x2="262.582" y2="415.388" gradientUnits="userSpaceOnUse">
<stop stop-color="#CE2F55"/>
<stop offset="0.375" stop-color="#FF6633"/>
<stop offset="0.708333" stop-color="#F6821F"/>
<stop offset="1" stop-color="#FBAD41"/>
</linearGradient>
<linearGradient id="paint2_linear_2135_304" x1="401.521" y1="143.865" x2="401.521" y2="318.625" gradientUnits="userSpaceOnUse">
<stop stop-color="#FBAD41"/>
<stop offset="0.588542" stop-color="#FFF8D6"/>
</linearGradient>
<linearGradient id="paint3_linear_2135_304" x1="242.852" y1="203.566" x2="544.891" y2="202.481" gradientUnits="userSpaceOnUse">
<stop offset="0.0416667" stop-color="#FF6633"/>
<stop offset="0.791667" stop-color="#CE2F55"/>
<stop offset="1" stop-color="#5D0C83"/>
</linearGradient>
<linearGradient id="paint4_linear_2135_304" x1="265.408" y1="203.23" x2="545.057" y2="202.302" gradientUnits="userSpaceOnUse">
<stop offset="0.0416667" stop-color="#FF6633"/>
<stop offset="0.791667" stop-color="#CE2F55"/>
<stop offset="1" stop-color="#5D0C83"/>
</linearGradient>
<linearGradient id="paint5_linear_2135_304" x1="279.191" y1="190.19" x2="544.121" y2="189.126" gradientUnits="userSpaceOnUse">
<stop offset="0.0416667" stop-color="#FF6633"/>
<stop offset="0.791667" stop-color="#CE2F55"/>
<stop offset="1" stop-color="#5D0C83"/>
</linearGradient>
<linearGradient id="paint6_linear_2135_304" x1="175.558" y1="157.765" x2="551.012" y2="150.848" gradientUnits="userSpaceOnUse">
<stop offset="0.0416667" stop-color="#FF6633"/>
<stop offset="0.791667" stop-color="#CE2F55"/>
<stop offset="1" stop-color="#5D0C83"/>
</linearGradient>
<linearGradient id="paint7_linear_2135_304" x1="676.354" y1="62.4575" x2="676.063" y2="195.717" gradientUnits="userSpaceOnUse">
<stop offset="0.0523105" stop-color="#FBAD41"/>
<stop offset="0.368141" stop-color="#FFF8D6"/>
</linearGradient>
<linearGradient id="paint8_linear_2135_304" x1="624.923" y1="81.8089" x2="722.826" y2="81.4572" gradientUnits="userSpaceOnUse">
<stop stop-color="#FF6633"/>
<stop offset="0.520833" stop-color="#CE2F55"/>
<stop offset="1" stop-color="#5D0C83"/>
</linearGradient>
<linearGradient id="paint9_linear_2135_304" x1="632.235" y1="81.7" x2="722.88" y2="81.3994" gradientUnits="userSpaceOnUse">
<stop stop-color="#FF6633"/>
<stop offset="0.520833" stop-color="#CE2F55"/>
<stop offset="1" stop-color="#5D0C83"/>
</linearGradient>
<linearGradient id="paint10_linear_2135_304" x1="636.703" y1="77.4734" x2="722.577" y2="77.1285" gradientUnits="userSpaceOnUse">
<stop stop-color="#FF6633"/>
<stop offset="0.520833" stop-color="#CE2F55"/>
<stop offset="1" stop-color="#5D0C83"/>
</linearGradient>
<linearGradient id="paint11_linear_2135_304" x1="603.111" y1="66.9629" x2="724.81" y2="64.7211" gradientUnits="userSpaceOnUse">
<stop stop-color="#FF6633"/>
<stop offset="0.520833" stop-color="#CE2F55"/>
<stop offset="1" stop-color="#5D0C83"/>
</linearGradient>
<clipPath id="clip0_2135_304">
<rect width="740" height="420" fill="white"/>
</clipPath>
</defs>
</svg>
